<svg width="160" height="160" viewBox="0 0 160 160" fill="none" xmlns="http://www.w3.org/2000/svg">
<g clip-path="url(#clip0_2481_80)">
<rect width="160" height="160" rx="32" fill="#AE00FF"/>
<path d="M85.0434 102.669H33.4052C27.6335 102.669 21.9302 99.8348 21.9302 94.0628L27.0941 36.687C27.0274 35.4747 27.2364 34.2631 27.7055 33.1428C28.1746 32.0232 28.8913 31.0241 29.802 30.2212C30.64 29.385 31.6613 28.7566 32.7851 28.3847C33.9083 28.0134 35.1035 27.9092 36.2741 28.0808H122.338C123.508 27.9098 124.702 28.014 125.824 28.3853C126.947 28.7572 127.967 29.3856 128.804 30.2212C129.716 31.0235 130.434 32.022 130.904 33.1422C131.374 34.2626 131.584 35.4741 131.518 36.687L136.681 94.0628C136.681 99.8348 130.979 102.669 125.206 102.669" fill="#66E1FF"/>
<path d="M36.2741 28.0812C35.1035 27.9085 33.9083 28.0121 32.7845 28.3834C31.6607 28.7553 30.6394 29.3848 29.802 30.2217C28.8913 31.0245 28.1746 32.0236 27.7055 33.1439C27.2364 34.2636 27.0274 35.4752 27.0941 36.688L21.9302 94.0636C21.9489 95.6956 22.4695 97.2826 23.4206 98.608C24.3722 99.9346 25.7092 100.936 27.2493 101.477L100.638 28.0812H36.2741Z" fill="#C2F3FF"/>
<path d="M85.0434 102.669H33.4052C27.6335 102.669 21.9302 99.8348 21.9302 94.0628L27.0941 36.687C27.0274 35.4747 27.2364 34.2631 27.7055 33.1428C28.1746 32.0232 28.8913 31.0241 29.802 30.2212C30.64 29.385 31.6613 28.7566 32.7851 28.3847C33.9083 28.0134 35.1035 27.9092 36.2741 28.0808H122.338C123.508 27.9098 124.702 28.014 125.824 28.3853C126.947 28.7572 127.967 29.3856 128.804 30.2212C129.716 31.0235 130.434 32.022 130.904 33.1422C131.374 34.2626 131.584 35.4741 131.518 36.687L136.681 94.0628C136.681 99.8348 130.979 102.669 125.206 102.669" stroke="#191919" stroke-width="2" stroke-linecap="round" stroke-linejoin="round"/>
<path d="M113.84 148.524H24.7991C24.0384 148.524 23.3087 148.222 22.7705 147.685C22.2323 147.147 21.9302 146.416 21.9302 145.656V122.705C21.9302 121.945 22.2323 121.215 22.7705 120.677C23.3087 120.139 24.0384 119.836 24.7991 119.836H113.84V148.524Z" fill="#B2B2B2"/>
<path d="M24.7991 119.836C24.0384 119.836 23.3087 120.139 22.7705 120.677C22.2323 121.215 21.9302 121.945 21.9302 122.705V139.918C21.9302 139.158 22.2323 138.427 22.7705 137.889C23.3087 137.352 24.0384 137.049 24.7991 137.049H113.84V119.836H24.7991Z" fill="#E3E3E3"/>
<path d="M59.2243 148.524H24.7991C24.0384 148.524 23.3087 148.222 22.7705 147.685C22.2323 147.147 21.9302 146.416 21.9302 145.656V122.705C21.9302 121.945 22.2323 121.215 22.7705 120.677C23.3087 120.139 24.0384 119.836 24.7991 119.836H85.0434" stroke="#191919" stroke-width="2" stroke-linecap="round" stroke-linejoin="round"/>
<path d="M36.2739 137.05H59.2241" stroke="#191919" stroke-width="2" stroke-linecap="round" stroke-linejoin="round"/>
<path d="M79.3081 102.625V119.837" stroke="#191919" stroke-width="2" stroke-linecap="round" stroke-linejoin="round"/>
<path d="M85.044 160L71.8479 145.438C70.5437 143.673 69.964 141.476 70.2263 139.297C70.4887 137.118 71.5732 135.122 73.2592 133.716C74.9446 132.31 77.103 131.601 79.2942 131.735C81.4848 131.868 83.5416 132.834 85.044 134.433L96.519 147.555V102.624C96.519 100.342 97.4256 98.1527 99.0396 96.5387C100.654 94.9247 102.843 94.0181 105.126 94.0181C107.408 94.0181 109.598 94.9247 111.212 96.5387C112.825 98.1527 113.732 100.342 113.732 102.624V128.444H130.945C137.032 128.444 142.869 130.861 147.173 135.165C151.477 139.47 153.895 145.307 153.895 151.394V160" fill="#FFDDA1"/>
<path d="M85.044 160L71.8479 145.438C70.5437 143.673 69.964 141.476 70.2263 139.297C70.4887 137.118 71.5732 135.122 73.2592 133.716C74.9446 132.31 77.103 131.601 79.2942 131.735C81.4848 131.868 83.5416 132.834 85.044 134.433L96.519 147.555V102.624C96.519 100.342 97.4256 98.1527 99.0396 96.5387C100.654 94.9247 102.843 94.0181 105.126 94.0181C107.408 94.0181 109.598 94.9247 111.212 96.5387C112.825 98.1527 113.732 100.342 113.732 102.624V128.444H130.945C137.032 128.444 142.869 130.861 147.173 135.165C151.477 139.47 153.895 145.307 153.895 151.394V160" stroke="#191919" stroke-width="2" stroke-linecap="round" stroke-linejoin="round"/>
<path d="M39.145 45.248H50.6201V56.7232H39.145V45.248Z" fill="#78EB7B" stroke="#191919" stroke-width="3" stroke-linecap="round" stroke-linejoin="round"/>
<path d="M62.0933 45.248H73.5683V56.7232H62.0933V45.248Z" fill="#FFEF5E" stroke="#191919" stroke-width="3" stroke-linecap="round" stroke-linejoin="round"/>
<path d="M39.145 68.1987H50.6201V79.6738H39.145V68.1987Z" fill="#FFEF5E" stroke="#191919" stroke-width="3" stroke-linecap="round" stroke-linejoin="round"/>
<path d="M62.0933 68.1987H73.5683V79.6738H62.0933V68.1987Z" fill="#78EB7B" stroke="#191919" stroke-width="3" stroke-linecap="round" stroke-linejoin="round"/>
<path d="M107.993 73.937V79.6742" stroke="#191919" stroke-width="3" stroke-linecap="round" stroke-linejoin="round"/>
<path d="M107.993 45.248V50.9859" stroke="#191919" stroke-width="3" stroke-linecap="round" stroke-linejoin="round"/>
<path d="M96.5171 73.9369H113.73C115.251 73.9369 116.711 73.3326 117.787 72.2562C118.863 71.1805 119.468 69.7211 119.468 68.1991C119.468 66.6771 118.863 65.2183 117.787 64.142C116.711 63.0662 115.251 62.4619 113.73 62.4619H102.255C100.733 62.4619 99.2735 61.8569 98.1977 60.7812C97.1219 59.7054 96.5171 58.246 96.5171 56.724C96.5171 55.202 97.1219 53.7433 98.1977 52.6669C99.2735 51.5911 100.733 50.9868 102.255 50.9868H119.468" stroke="#191919" stroke-width="3" stroke-linecap="round" stroke-linejoin="round"/>
</g>
<defs>
<clipPath id="clip0_2481_80">
<rect width="160" height="160" rx="32" fill="white"/>
</clipPath>
</defs>
</svg>
